<?xml version="1.0" standalone="no"?>
<!DOCTYPE svg PUBLIC "-//W3C//DTD SVG 20010904//EN"
 "http://www.w3.org/TR/2001/REC-SVG-20010904/DTD/svg10.dtd">
<svg version="1.0" xmlns="http://www.w3.org/2000/svg"
 width="310.000000pt" height="310.000000pt" viewBox="0 0 310.000000 310.000000"
 preserveAspectRatio="xMidYMid meet">
<metadata>
Created by potrace 1.14, written by Peter Selinger 2001-2017
</metadata>
<g transform="translate(0.000000,310.000000) scale(0.100000,-0.100000)"
fill="#000000" stroke="none">
<path d="M1505 2473 c3 -12 2 -24 -3 -27 -5 -3 -8 -19 -7 -36 1 -16 -2 -30 -6
-30 -4 0 -5 -10 -1 -22 4 -16 2 -19 -9 -13 -12 7 -12 6 -1 -7 10 -13 10 -17 0
-21 -10 -4 -9 -6 1 -6 11 -1 10 -5 -5 -16 -19 -15 -19 -15 1 -8 17 6 18 4 8
-9 -7 -8 -10 -18 -6 -21 3 -4 -2 -7 -13 -8 -18 0 -18 -1 1 -9 11 -5 15 -9 9
-9 -7 -1 -14 -10 -17 -21 -3 -13 -1 -18 6 -13 7 4 6 -1 -2 -10 -11 -14 -11
-17 0 -17 11 0 11 -2 -1 -10 -8 -5 -11 -10 -7 -10 4 0 3 -10 -4 -21 -6 -12 -7
-19 -1 -15 6 3 9 -5 8 -19 0 -14 -5 -25 -9 -25 -5 0 -5 -4 -2 -10 3 -5 1 -10
-4 -10 -6 0 -11 -5 -11 -11 0 -5 4 -8 9 -5 15 10 7 -28 -9 -42 -8 -8 -9 -11
-2 -7 6 3 12 1 12 -4 0 -6 -4 -11 -10 -11 -5 0 -10 -5 -10 -11 0 -5 5 -7 10
-4 13 8 9 -17 -4 -27 -12 -8 -17 -40 -6 -33 5 3 12 0 16 -6 4 -8 3 -9 -4 -5
-7 4 -12 2 -12 -4 0 -6 -4 -9 -9 -5 -5 3 -12 1 -16 -5 -4 -6 -10 -8 -14 -6 -4
3 -8 -1 -8 -9 0 -10 4 -12 12 -5 7 5 16 6 20 2 5 -4 5 0 0 8 -5 9 -5 12 1 7
11 -11 12 -77 1 -77 -4 0 -5 -4 -2 -10 3 -5 0 -10 -7 -10 -9 0 -9 -3 -2 -8 13
-8 15 -44 2 -36 -5 3 -6 9 -3 14 3 4 -2 11 -10 14 -13 5 -14 2 -3 -17 7 -12
13 -39 13 -59 2 -35 0 -36 -27 -33 -17 2 -26 0 -22 -6 3 -5 2 -16 -3 -22 -4
-7 0 -4 10 6 18 20 29 17 33 -8 1 -8 -2 -13 -7 -9 -5 3 -9 0 -9 -5 0 -6 4 -11
8 -11 4 0 8 -9 8 -19 0 -11 -4 -17 -8 -15 -4 3 -8 -13 -8 -35 0 -23 -4 -41 -9
-41 -5 0 -8 11 -7 24 3 24 -14 30 -31 11 -4 -4 -3 -5 3 -2 14 8 27 -20 14 -28
-6 -4 -9 -14 -9 -23 1 -16 2 -16 6 0 4 17 33 14 33 -4 0 -5 -4 -6 -10 -3 -14
9 -12 -8 3 -24 10 -11 9 -12 -1 -7 -9 6 -11 1 -8 -18 4 -23 2 -25 -13 -16 -10
5 -21 7 -24 4 -3 -4 -5 3 -4 15 2 25 6 26 21 5 10 -13 12 -13 12 4 0 14 -6 19
-22 17 -11 -1 -26 -5 -31 -8 -6 -4 -16 -1 -22 7 -7 8 -24 12 -43 10 -25 -3
-29 -1 -20 8 7 7 12 17 12 23 0 5 -4 4 -8 -2 -6 -10 -12 -10 -28 3 -10 8 -12
13 -4 9 8 -4 1 7 -17 23 -17 17 -29 33 -26 36 4 3 1 6 -5 6 -6 0 -14 9 -17 21
-6 17 -9 18 -18 6 -7 -8 -21 -20 -32 -27 -12 -7 -14 -10 -3 -6 21 6 31 -4 18
-20 -6 -6 -9 -17 -8 -24 2 -7 -5 -14 -15 -15 -9 -2 -14 1 -11 7 4 6 3 13 -2
17 -19 13 -32 49 -23 60 5 6 6 9 3 6 -10 -7 -33 27 -34 48 0 11 -5 15 -11 11
-8 -4 -9 0 -4 15 3 12 3 21 -2 20 -20 -4 -24 2 -12 19 7 9 10 14 5 10 -5 -4
-15 -1 -22 7 -15 15 -38 65 -36 78 1 4 -3 8 -8 8 -6 1 -16 2 -22 3 -22 4 -29
-5 -17 -21 23 -27 17 -50 -18 -65 -29 -14 -48 -8 -23 7 11 7 2 35 -12 35 -6 0
-4 -8 3 -17 13 -16 12 -17 -3 -5 -9 7 -15 21 -13 30 2 9 4 17 5 17 1 0 3 8 5
18 2 9 -1 15 -6 11 -5 -3 -7 -9 -4 -14 3 -5 0 -12 -6 -16 -12 -7 -31 15 -23
28 3 4 -4 17 -15 29 -11 12 -18 25 -16 30 3 4 -2 15 -11 23 -8 9 -12 16 -8 16
4 0 -3 12 -17 27 -13 14 -17 22 -9 18 11 -6 10 -3 -2 11 -13 15 -15 23 -6 32
8 8 5 10 -13 6 -19 -5 -21 -4 -9 5 10 7 11 11 3 11 -7 0 -17 10 -24 21 -7 15
-8 19 0 15 7 -5 9 -1 5 8 -3 9 -10 13 -15 11 -5 -3 -11 6 -15 20 -3 14 -10 25
-15 25 -5 0 -9 9 -9 20 0 11 -4 20 -9 20 -10 0 -27 39 -23 53 1 5 -2 6 -7 2
-11 -6 -34 29 -24 39 3 3 -1 6 -10 6 -9 0 -20 8 -25 17 -16 28 -39 24 -40 -8
0 -16 4 -29 9 -29 5 0 9 -10 9 -23 0 -13 6 -29 12 -36 10 -11 10 -13 1 -7 -7
4 -13 2 -13 -3 0 -6 7 -11 15 -11 13 0 20 -19 16 -43 -1 -4 4 -17 10 -28 6
-11 12 -28 14 -37 7 -39 10 -47 19 -53 5 -4 8 -18 8 -33 1 -14 4 -26 8 -26 4
0 10 -9 13 -20 5 -21 -25 -51 -47 -46 -6 2 -8 1 -3 -1 4 -3 4 -10 1 -15 -4 -6
-2 -8 4 -5 14 9 43 -3 36 -15 -3 -5 -13 -4 -22 3 -13 10 -13 9 1 -7 15 -16 19
-17 27 -4 9 14 11 13 14 -9 3 -21 12 -18 12 4 0 13 -4 23 -9 22 -5 -1 -10 8
-12 21 -1 12 2 22 6 22 8 0 21 -36 23 -63 0 -10 7 -22 15 -26 9 -6 10 -11 2
-15 -6 -4 -9 -12 -5 -17 3 -5 11 -6 17 -2 7 4 6 0 -2 -10 -11 -14 -11 -18 3
-23 15 -6 15 -8 -1 -20 -17 -12 -17 -13 5 -14 22 0 30 -14 13 -24 -12 -8 -42
4 -36 14 3 4 -2 13 -10 20 -8 7 -12 16 -9 21 3 5 0 9 -6 9 -7 0 -10 6 -7 13 3
8 -3 20 -14 28 -10 7 -19 19 -19 26 0 7 -4 13 -8 13 -13 0 -44 59 -37 71 4 6
14 8 22 5 8 -3 19 -4 23 -1 11 7 1 35 -12 35 -6 0 -5 -6 2 -15 8 -10 9 -15 2
-15 -6 0 -16 8 -21 18 -9 15 -10 15 -11 1 0 -9 -7 -20 -16 -23 -8 -3 -12 -2
-9 3 3 6 -3 14 -12 20 -10 6 -13 11 -8 11 6 0 17 -6 25 -12 12 -11 12 -10 1 5
-7 9 -18 17 -23 17 -18 0 -50 38 -43 51 5 7 4 10 -3 5 -5 -3 -12 -3 -15 1 -2
5 -2 1 0 -7 3 -12 1 -12 -8 -3 -16 16 -38 -5 -31 -30 4 -15 7 -16 14 -5 7 9 8
7 5 -9 -3 -13 -1 -23 5 -23 6 0 7 -7 4 -16 -3 -8 -2 -12 4 -9 14 9 12 -29 -3
-44 -6 -8 -7 -11 -1 -8 17 9 57 -38 57 -67 0 -14 3 -23 8 -21 4 3 10 1 13 -4
4 -5 1 -13 -5 -17 -8 -5 -9 -3 -4 6 5 9 4 11 -4 6 -14 -9 -5 -26 15 -26 10 0
9 -5 -6 -20 -12 -12 -17 -26 -13 -36 5 -13 3 -15 -7 -9 -9 5 -11 4 -6 -4 9
-13 27 -5 25 12 -3 26 2 37 17 37 13 0 14 -3 5 -13 -6 -8 -8 -17 -4 -20 3 -4
-1 -15 -10 -25 -14 -15 -15 -19 -2 -19 8 0 12 4 9 8 -2 4 0 10 5 13 13 9 42
-4 40 -18 -4 -29 2 -47 13 -40 7 4 8 3 4 -4 -4 -7 -1 -12 6 -12 10 0 10 -2 -1
-9 -11 -7 -10 -10 3 -18 9 -5 18 -19 19 -31 1 -12 5 -22 9 -22 4 0 5 -7 1 -15
-3 -10 0 -15 8 -13 9 2 13 -4 11 -16 -2 -10 1 -15 7 -12 6 4 8 -4 5 -20 -5
-25 -3 -26 13 -13 14 12 14 9 -2 -13 -11 -15 -24 -28 -28 -28 -5 0 -5 -5 -1
-11 4 -8 11 -5 18 9 8 16 15 19 26 12 11 -7 11 -10 2 -10 -7 0 -10 -5 -7 -10
4 -6 11 -8 16 -5 5 3 6 -2 2 -11 -4 -11 -3 -15 4 -11 7 5 9 0 6 -13 -4 -14 -1
-19 8 -17 8 2 11 2 7 0 -5 -3 -3 -13 3 -24 5 -11 7 -25 3 -32 -6 -9 -5 -9 7 0
15 12 17 7 19 -50 1 -9 5 -15 11 -12 5 4 9 0 9 -7 0 -8 -9 -14 -19 -15 -14 -1
-18 3 -14 15 4 14 3 14 -5 2 -13 -18 -6 -31 15 -28 9 2 18 -3 21 -11 3 -8 0
-11 -6 -7 -6 3 -14 1 -17 -4 -5 -7 -12 -5 -22 7 -13 17 -13 16 -3 -5 12 -24
30 -30 30 -9 0 9 2 9 9 -1 7 -11 10 -10 15 3 3 9 4 21 1 25 -3 5 -2 11 3 14 5
3 9 0 9 -7 1 -22 8 -42 18 -50 6 -5 3 -7 -7 -3 -10 3 -20 1 -23 -4 -3 -5 -13
-7 -23 -4 -14 5 -14 4 -2 -4 10 -8 18 -8 27 0 10 8 13 6 13 -6 0 -9 -5 -16
-12 -16 -6 0 -8 -3 -4 -7 4 -5 13 0 21 10 11 16 13 16 19 2 3 -9 2 -13 -4 -10
-6 3 -10 2 -10 -4 0 -5 4 -12 10 -16 6 -4 6 -15 0 -31 -6 -15 -6 -23 -1 -19 6
3 8 -6 5 -21 -3 -18 -1 -23 7 -18 8 4 9 3 5 -5 -11 -17 -15 -61 -6 -61 4 0 7
-15 6 -34 0 -20 -5 -32 -11 -28 -5 3 -7 2 -3 -3 4 -4 3 -13 -2 -20 -7 -8 -5
-12 5 -12 8 0 12 4 9 9 -3 4 -2 8 3 9 46 4 61 3 60 -6 -1 -5 3 -9 10 -8 7 2
10 -8 8 -25 -2 -15 -2 -22 1 -15 3 7 13 10 22 7 16 -5 16 -5 0 6 -17 11 -14
45 3 34 5 -3 7 -9 4 -14 -3 -4 2 -10 10 -14 8 -3 12 -12 9 -21 -3 -8 -11 -12
-18 -8 -6 3 -7 2 -3 -2 14 -16 36 -14 30 3 -4 10 -2 13 6 8 6 -4 18 -2 26 4 9
7 15 8 15 2 0 -5 7 -12 14 -15 11 -4 13 -1 9 10 -4 9 -2 14 3 10 6 -3 15 -2
22 2 9 5 8 12 -4 27 -15 19 -15 19 -10 -1 5 -16 1 -21 -15 -22 -15 -1 -18 1
-10 10 17 21 6 52 -17 51 -12 0 -18 4 -15 10 4 6 0 5 -9 -2 -12 -10 -17 -39
-9 -61 0 -2 12 4 26 13 31 20 33 3 3 -19 -21 -15 -24 -14 -40 5 -9 12 -14 28
-11 37 5 12 3 14 -8 8 -8 -5 -5 2 6 14 11 13 19 33 18 45 -3 20 -2 20 6 1 7
-14 10 -16 11 -5 2 8 2 19 1 23 -1 5 3 6 8 2 6 -3 8 -12 4 -20 -3 -10 1 -15
13 -16 18 0 18 -1 0 -8 -19 -7 -18 -8 5 -15 13 -5 27 -8 32 -7 4 1 6 -2 5 -6
-4 -13 34 -63 43 -57 5 3 17 0 26 -6 16 -10 15 -11 -5 -7 -12 3 -20 1 -16 -4
3 -5 12 -9 20 -9 8 0 14 -4 14 -10 0 -5 5 -10 11 -10 8 0 7 5 -1 15 -12 14
-10 15 14 11 15 -3 33 -10 40 -15 9 -7 19 -6 33 4 19 13 22 13 27 -1 3 -8 10
-13 15 -9 6 3 9 -9 7 -30 -2 -19 -1 -33 3 -30 13 7 6 70 -7 67 -7 -1 -12 3
-12 9 0 7 9 9 24 5 16 -4 29 0 41 14 17 18 17 20 1 26 -10 4 -13 10 -8 13 5 3
-1 14 -14 24 -22 17 -23 16 -19 -3 2 -11 1 -20 -3 -21 -4 0 -15 -2 -25 -4 -11
-2 -15 1 -11 8 5 8 2 8 -6 0 -17 -15 -11 -22 24 -29 20 -3 26 0 26 12 0 23 13
9 15 -15 2 -19 -25 -22 -72 -7 -19 6 -21 11 -13 26 9 16 7 18 -10 15 -11 -2
-18 0 -15 5 6 10 -15 8 -32 -3 -8 -5 -13 -3 -13 3 0 6 -6 8 -12 4 -7 -4 -4 3
7 15 11 13 19 26 18 30 -1 3 1 8 4 11 4 3 3 0 0 -6 -4 -6 0 -20 8 -30 14 -18
15 -16 11 19 -3 32 -1 35 11 25 9 -7 11 -14 5 -16 -6 -2 -4 -11 6 -21 15 -16
19 -16 34 -3 16 13 17 12 13 -7 -3 -15 0 -21 8 -18 7 2 11 12 9 22 -3 13 1 16
12 12 9 -4 16 -1 16 5 0 6 17 -12 38 -41 21 -29 43 -49 50 -46 8 3 10 0 6 -7
-4 -7 -3 -8 4 -4 7 4 12 2 12 -3 0 -6 5 -11 12 -11 9 0 9 3 0 12 -7 7 -12 19
-12 27 0 11 9 6 26 -14 14 -16 23 -25 20 -18 -4 6 -3 13 1 16 5 2 2 2 -5 1 -7
-2 -12 2 -11 9 3 27 -1 38 -13 31 -9 -5 -8 -2 1 9 8 10 16 15 19 12 3 -2 13 5
23 17 11 11 19 16 19 9 0 -7 5 -9 10 -6 6 4 7 12 3 18 -4 7 0 6 10 -2 19 -15
23 -1 5 17 -9 9 -9 15 1 24 8 7 11 8 8 2 -4 -6 0 -20 8 -30 14 -18 15 -18 12
6 -1 14 -6 32 -11 40 -7 12 -6 13 5 2 20 -18 34 -15 18 5 -12 15 -12 16 1 8 8
-6 20 -10 25 -10 6 0 10 -7 10 -15 0 -10 -8 -14 -25 -12 -24 3 -24 3 -6 -11
19 -14 14 -43 -5 -32 -5 4 -9 1 -9 -5 0 -7 6 -10 13 -7 8 3 14 -1 14 -8 0 -10
-5 -11 -17 -5 -10 5 -21 6 -25 2 -5 -4 -4 0 0 8 7 12 6 13 -7 3 -8 -7 -19 -9
-23 -5 -5 4 -5 2 -1 -5 4 -8 0 -11 -14 -8 -12 2 -18 0 -15 -6 4 -5 3 -8 -2 -7
-8 3 -13 -5 -13 -22 0 -17 22 -11 57 16 31 23 47 22 22 -3 -7 -7 -8 -17 -1
-28 6 -12 11 -14 16 -6 4 6 2 11 -3 11 -6 0 -11 5 -11 11 0 5 5 7 10 4 6 -4
23 1 37 10 23 16 25 16 20 1 -3 -8 0 -30 8 -48 12 -27 14 -29 15 -11 0 12 -4
25 -10 28 -5 3 -10 12 -10 18 1 7 9 2 19 -10 l18 -22 12 25 c14 32 -2 69 -27
59 -14 -5 -15 -4 -5 6 10 10 20 6 46 -23 18 -20 32 -43 31 -52 -1 -8 5 -17 13
-20 8 -3 11 -1 8 4 -3 6 1 10 10 10 9 0 14 -4 10 -9 -3 -5 0 -13 6 -17 8 -4 9
-3 5 5 -4 6 -1 14 8 17 8 3 13 14 11 25 -2 10 1 18 8 16 6 -1 11 3 12 10 1 28
46 41 65 18 7 -8 16 -12 21 -9 11 6 12 25 2 22 -5 -1 -18 3 -29 10 -12 6 -25
8 -29 4 -5 -4 -5 -2 -1 5 4 7 14 9 24 6 14 -6 15 -4 5 8 -10 13 -10 16 2 16 8
0 12 -4 9 -8 -2 -4 6 -16 19 -26 22 -17 27 -24 27 -39 0 -4 7 0 17 7 13 11 17
11 20 1 3 -6 9 -9 14 -6 6 4 6 10 0 18 -8 9 -7 13 4 13 7 0 13 -3 13 -6 -3
-16 15 -40 26 -34 6 3 8 3 4 -2 -10 -10 10 -47 22 -40 5 3 11 1 15 -5 10 -16
28 -12 21 6 -3 8 -2 13 3 10 9 -6 26 23 22 38 -1 5 4 4 12 -2 8 -7 17 -9 20
-5 4 3 7 -1 7 -10 0 -10 -7 -15 -20 -12 -18 3 -25 -5 -21 -28 0 -4 -3 -7 -7
-7 -5 0 -9 -7 -9 -15 0 -8 4 -12 9 -9 4 3 8 0 8 -5 0 -6 5 -11 11 -11 8 0 8 4
2 13 -14 16 -12 49 1 44 6 -2 10 -12 8 -21 -3 -14 1 -16 17 -11 17 5 20 3 15
-12 -3 -10 -2 -14 3 -8 9 12 68 45 78 45 4 0 2 -7 -5 -15 -17 -21 -1 -35 25
-24 18 9 18 9 -2 5 -38 -7 -26 12 22 34 25 11 45 24 45 29 0 5 7 12 16 15 13
5 14 3 6 -7 -7 -8 -7 -18 -2 -27 9 -13 10 -13 11 0 2 18 1 36 -5 73 -2 16 -2
26 1 23 6 -6 32 23 33 37 0 4 -4 7 -10 7 -5 0 -9 -5 -7 -11 1 -6 -3 -13 -8
-15 -6 -2 -11 5 -11 16 0 11 4 20 8 20 4 0 8 7 8 15 0 8 5 15 10 15 6 0 10 -6
10 -14 0 -8 4 -17 8 -20 4 -2 7 8 6 22 -1 27 -5 29 -35 17 -10 -4 -16 -1 -16
8 0 8 7 14 15 13 8 -1 17 5 19 12 3 6 0 12 -7 12 -6 0 -8 -4 -5 -10 3 -6 -1
-7 -10 -3 -9 3 -13 9 -8 12 4 3 9 19 10 35 3 31 9 43 19 33 4 -4 1 -15 -7 -24
-13 -16 -12 -17 3 -5 9 8 23 10 29 6 7 -4 4 4 -7 18 -10 14 -23 24 -27 21 -5
-3 -3 4 5 16 7 12 17 21 23 21 5 0 3 5 -5 10 -13 8 -12 10 3 10 15 0 16 3 6
21 -7 13 -7 19 -1 15 12 -7 21 5 27 36 3 12 10 25 17 29 21 13 23 0 2 -17 -18
-14 -18 -14 5 -4 18 9 25 9 31 0 5 -8 9 -7 13 5 4 9 3 14 -2 11 -12 -8 -33 19
-23 29 4 5 2 5 -5 1 -6 -3 -14 -2 -18 4 -7 11 5 13 29 4 9 -3 14 -9 12 -13 -3
-4 4 -8 15 -8 10 -1 19 2 19 8 0 5 -6 8 -12 6 -16 -3 -11 35 5 45 9 6 8 8 -1
8 -7 0 -16 -9 -20 -20 -5 -14 -11 -17 -22 -10 -10 7 -11 10 -2 10 6 0 12 5 12
11 0 5 -5 7 -11 4 -6 -4 -5 2 3 14 7 12 17 21 22 21 4 0 2 -8 -5 -17 -11 -15
-11 -16 0 -6 7 6 21 9 30 6 12 -5 10 -1 -4 13 -12 10 -19 18 -16 17 2 -2 9 5
16 14 8 11 14 13 19 5 4 -7 2 -12 -3 -12 -6 0 -11 -5 -11 -10 0 -6 8 -5 19 2
18 11 18 13 3 24 -9 6 -23 9 -31 6 -9 -3 -12 -1 -7 6 11 18 26 15 60 -12 28
-21 32 -22 32 -6 0 11 -5 16 -15 12 -9 -3 -12 -1 -7 6 5 8 1 10 -10 5 -12 -4
-15 -3 -10 6 4 6 4 11 -1 10 -22 -4 -34 2 -26 14 4 6 8 19 8 27 0 9 10 14 28
15 15 0 32 7 37 15 9 13 11 13 21 0 9 -13 10 -13 6 0 -2 8 -17 15 -33 16 -16
1 -23 0 -16 -3 17 -6 15 -20 -3 -20 -19 0 -16 44 4 60 12 10 14 9 8 -5 -3 -10
-2 -18 3 -18 6 0 10 8 10 18 0 10 6 24 13 32 10 12 9 12 -5 1 -12 -9 -18 -10
-18 -3 0 6 12 18 28 27 26 15 26 16 2 10 -15 -4 -20 -3 -13 2 7 5 14 18 16 28
4 27 27 67 46 83 12 10 13 12 1 6 -12 -7 -11 -2 3 19 9 15 14 27 10 27 -4 0 2
7 13 16 10 8 13 13 7 9 -7 -3 -13 -1 -13 4 0 6 4 11 10 11 5 0 12 11 16 25 3
14 11 25 18 25 6 0 4 5 -4 10 -8 5 -10 10 -4 10 5 0 16 16 24 35 7 19 18 32
23 28 5 -3 3 5 -4 18 -11 21 -10 23 3 11 13 -10 15 -9 11 12 -5 26 -28 42 -38
25 -4 -5 -11 -7 -16 -4 -5 4 -9 0 -9 -7 0 -8 -9 -21 -20 -31 -15 -13 -25 -14
-46 -7 -22 9 -27 7 -31 -10 -3 -10 -14 -22 -24 -25 -15 -5 -17 -10 -9 -25 7
-13 7 -26 -1 -42 -11 -26 -48 -36 -45 -13 3 18 16 32 16 17 0 -7 4 -12 9 -12
10 0 8 34 -3 61 -5 12 -1 18 14 22 26 7 21 34 -4 29 -15 -3 -16 0 -6 17 6 12
8 21 4 21 -3 0 -1 6 5 13 6 8 7 18 3 22 -4 5 2 5 12 1 15 -5 16 -4 8 7 -7 8
-7 18 -2 27 5 8 6 18 4 22 -3 4 0 8 5 8 6 0 11 11 11 25 0 14 4 25 10 25 5 0
7 7 3 15 -3 9 3 23 13 31 11 9 12 12 4 8 -12 -7 -13 -5 -3 8 7 8 10 18 6 21
-3 4 -1 7 5 7 6 0 9 6 6 14 -3 8 -1 17 5 21 6 3 11 17 11 30 0 17 -5 23 -20
22 -10 -1 -17 -3 -15 -6 3 -2 -12 -20 -33 -40 -38 -37 -42 -43 -50 -73 -5 -21
-13 -22 -32 -5 -12 10 -12 9 -2 -4 16 -21 12 -38 -13 -62 -11 -10 -14 -16 -8
-12 9 4 11 1 7 -9 -3 -9 -10 -13 -15 -10 -5 3 -9 -2 -9 -10 0 -9 -4 -16 -9
-16 -6 0 -8 -9 -6 -20 2 -11 -1 -23 -7 -26 -7 -4 -8 -2 -4 4 5 8 2 10 -9 6
-12 -5 -13 -9 -4 -20 9 -11 9 -14 0 -14 -7 0 -9 -4 -6 -10 9 -14 -8 -12 -24 3
-11 10 -11 8 0 -10 11 -19 11 -25 -4 -41 -9 -10 -14 -22 -10 -25 3 -4 -2 -7
-13 -7 -14 0 -16 -2 -5 -9 7 -5 9 -10 5 -12 -12 -5 -59 -101 -56 -114 1 -5 -7
1 -18 15 l-21 25 16 -33 c12 -24 12 -32 3 -30 -8 2 -12 -5 -10 -14 2 -10 -1
-18 -6 -18 -9 0 -25 -37 -23 -52 1 -5 -4 -8 -10 -8 -5 0 -7 -4 -4 -10 3 -6 -1
-7 -10 -3 -11 4 -13 8 -5 13 6 4 9 19 6 33 -3 15 0 27 6 27 6 0 7 -8 3 -17 -4
-13 -3 -15 5 -7 14 13 2 46 -14 37 -6 -3 -3 3 7 14 9 11 14 23 10 26 -3 4 1 7
10 7 16 0 16 2 0 18 -16 16 -19 16 -25 2 -6 -13 -7 -13 -8 0 -1 9 -5 6 -11 -8
-5 -13 -13 -21 -19 -17 -6 4 -7 -1 -3 -11 5 -14 3 -16 -13 -10 -15 6 -16 5 -7
-5 15 -15 -2 -53 -19 -43 -7 5 -8 2 -3 -6 4 -7 2 -16 -6 -21 -12 -7 -12 -9 0
-9 11 0 9 -4 -5 -15 -10 -8 -15 -15 -11 -15 5 0 -1 -13 -13 -30 -12 -17 -18
-35 -14 -42 5 -8 1 -8 -12 2 -10 8 -16 10 -12 6 4 -5 2 -16 -5 -24 -9 -13 -9
-14 1 -8 16 10 15 -5 -2 -29 -7 -11 -15 -24 -17 -30 -2 -5 -11 -8 -19 -7 -12
3 -13 1 -2 -9 17 -18 15 -26 -9 -32 -12 -3 -18 -3 -15 0 3 4 0 13 -7 21 -9 13
-9 14 1 8 6 -4 12 -3 12 3 0 5 -5 13 -10 16 -8 5 -8 11 0 20 7 8 7 14 1 17 -5
1 -11 15 -13 30 -2 15 -8 31 -13 35 -4 4 -5 3 -2 -3 4 -6 -5 -16 -18 -22 -14
-7 -25 -16 -25 -22 0 -6 -4 -8 -10 -5 -6 3 -7 -1 -4 -9 4 -11 0 -16 -12 -17
-11 0 -14 -3 -7 -5 8 -4 5 -13 -9 -29 -12 -14 -25 -22 -29 -19 -5 3 -6 -2 -3
-11 4 -9 3 -15 -2 -14 -21 4 -28 -2 -14 -11 11 -7 11 -10 2 -10 -7 0 -10 -5
-6 -12 5 -7 3 -8 -5 -4 -8 5 -11 3 -9 -6 2 -7 -1 -14 -6 -15 -5 -1 -12 -7 -17
-14 -4 -8 -10 -11 -14 -8 -3 3 4 16 15 29 22 26 26 40 9 40 -5 0 -8 -4 -5 -9
3 -5 -1 -14 -10 -22 -12 -10 -18 -9 -31 4 -13 13 -14 19 -4 31 7 8 11 23 8 33
-4 14 -5 13 -6 -5 -1 -13 -5 -20 -11 -17 -6 4 -8 16 -5 28 3 13 -2 8 -13 -11
-10 -18 -22 -29 -27 -25 -4 5 -5 2 0 -6 7 -12 10 -11 22 4 12 17 18 13 14 -9
-1 -4 4 -14 10 -22 14 -17 -2 -19 -19 -2 -9 9 -12 9 -12 0 0 -7 4 -12 9 -12 5
0 7 -15 5 -32 -3 -18 -1 -28 3 -22 4 6 16 10 26 8 10 -1 14 2 11 8 -4 7 -2 8
5 4 8 -5 5 -16 -9 -37 -12 -16 -26 -29 -31 -29 -6 0 -8 -4 -5 -8 3 -5 -1 -9
-8 -9 -7 0 -13 6 -13 13 0 7 3 13 6 12 19 -2 31 3 26 11 -3 6 -15 8 -26 6 -17
-4 -19 -2 -9 10 10 12 10 19 -1 32 -12 15 -12 16 3 10 12 -4 15 -2 11 8 -3 8
-9 13 -13 10 -5 -3 -6 5 -2 17 3 12 1 19 -4 15 -6 -3 -10 5 -10 18 0 13 3 22
6 20 3 -2 11 5 18 16 7 11 8 19 2 19 -5 0 -10 -4 -10 -10 0 -16 -17 -12 -24 6
-3 8 -2 12 4 9 6 -3 10 -1 10 4 0 6 -4 11 -10 11 -5 0 -10 5 -10 11 0 5 4 8 8
5 4 -2 14 0 22 6 12 8 12 9 -2 4 -11 -3 -22 2 -28 14 -6 11 -8 20 -4 20 3 0 0
8 -7 17 -12 14 -12 16 0 8 11 -6 13 -4 6 11 -4 10 -9 33 -10 49 -1 17 -3 30
-5 30 -1 0 -3 14 -4 30 -1 17 -5 36 -9 43 -6 8 -2 12 10 12 10 0 14 4 8 8 -5
4 -17 16 -25 27 -15 19 -15 20 15 1 l30 -19 -19 21 c-11 12 -15 22 -10 22 5 0
1 7 -9 15 -13 9 -17 20 -12 34 3 12 11 19 16 15 6 -3 5 -12 -3 -22 -11 -15
-11 -15 3 -5 9 7 20 9 25 5 4 -4 3 0 -4 9 -6 9 -9 18 -6 22 8 8 -18 3 -33 -6
-9 -6 -11 -3 -7 8 4 8 1 22 -6 30 -10 12 -10 15 0 15 8 0 10 7 5 18 -10 25
-15 53 -17 94 -1 20 -4 36 -7 34 -11 -7 -8 59 3 66 7 5 6 8 -4 8 -9 0 -16 11
-17 28 -1 15 -3 39 -6 55 -2 16 0 27 7 27 7 0 7 3 1 8 -12 9 -18 30 -16 60 0
14 -3 21 -10 16 -8 -4 -8 -1 0 14 9 17 8 23 -6 31 -11 6 -13 11 -5 11 10 0 10
5 2 20 -9 16 -8 19 7 14 14 -4 14 -3 -2 7 -11 7 -24 17 -28 23 -5 6 -6 1 -2
-11z m1035 -522 c0 -9 -41 -23 -49 -16 -3 4 28 20 47 24 1 1 2 -3 2 -8z m80
-17 c0 -8 -5 -14 -11 -14 -5 0 -7 5 -3 12 4 7 3 8 -5 4 -9 -6 -9 -11 0 -22 10
-12 9 -13 -5 -8 -12 5 -16 1 -14 -17 2 -16 -2 -23 -11 -21 -8 2 -11 -3 -8 -13
4 -8 3 -15 -2 -15 -5 0 -11 -10 -15 -22 -3 -13 -16 -35 -30 -49 -14 -15 -22
-30 -18 -34 4 -4 -3 -2 -15 4 -13 6 -23 8 -23 2 0 -5 7 -12 16 -15 8 -3 13
-10 9 -15 -3 -6 -13 -7 -23 -4 -15 6 -15 5 -3 -10 9 -12 10 -17 2 -17 -7 0 -9
-4 -6 -10 4 -6 -1 -7 -12 -3 -16 6 -17 5 -3 -13 14 -17 14 -18 -2 -6 -10 8
-19 9 -22 3 -3 -5 -1 -11 5 -13 15 -5 3 -44 -15 -51 -7 -3 -19 -1 -27 5 -11 8
-11 9 2 5 17 -6 39 10 39 26 0 5 -7 4 -15 -3 -9 -7 -18 -10 -22 -6 -3 3 -1 6
7 6 10 0 10 4 -1 17 -8 9 -9 14 -3 10 6 -4 20 3 30 15 19 21 19 21 0 14 -15
-5 -17 -4 -8 7 7 8 9 17 5 20 -3 4 -1 7 5 7 7 0 12 -7 12 -15 0 -8 5 -15 10
-15 16 0 7 34 -10 42 -12 5 -12 7 3 7 9 1 17 6 17 12 0 5 -5 7 -12 3 -7 -4 -8
-3 -4 5 4 6 11 9 16 6 5 -3 11 -1 15 5 3 5 -1 10 -10 10 -13 0 -14 4 -5 20 6
11 8 20 4 20 -3 0 -1 7 6 15 7 8 9 15 5 15 -4 0 -2 6 4 13 6 8 8 17 4 20 -3 4
-1 7 6 7 7 0 9 5 5 12 -5 7 -3 8 6 3 10 -6 12 -3 7 11 -7 18 -7 18 8 0 8 -11
15 -25 15 -30 0 -6 -4 -5 -9 2 -6 11 -10 10 -16 -5 -15 -34 -11 -48 15 -48 30
0 52 38 43 74 -4 16 -2 22 5 17 7 -4 14 3 18 17 4 18 11 23 25 20 10 -3 19
-12 19 -19z m-2050 -74 c0 -5 -5 -10 -11 -10 -5 0 -7 5 -4 10 3 6 8 10 11 10
2 0 4 -4 4 -10z m-140 -20 c0 -5 -2 -10 -4 -10 -3 0 -8 5 -11 10 -3 6 -1 10 4
10 6 0 11 -4 11 -10z m456 -142 c5 -8 2 -9 -9 -5 -9 3 -19 2 -22 -3 -8 -13
-25 -13 -25 -1 0 8 15 15 42 20 4 0 10 -4 14 -11z m-4 -22 c7 4 8 2 4 -4 -4
-7 -1 -12 6 -12 8 0 9 -3 3 -8 -12 -9 -13 -35 -2 -43 5 -3 2 -9 -7 -12 -9 -4
-15 -3 -14 1 2 4 -6 19 -16 35 -15 23 -16 30 -5 43 8 10 15 12 17 5 2 -6 9 -8
14 -5z m-215 -38 c1 -11 8 -25 15 -29 7 -5 9 -9 3 -9 -17 0 -31 14 -29 30 3
37 9 41 11 8z m240 -68 c-1 -11 -5 -20 -9 -20 -3 0 -6 9 -5 20 1 11 5 20 9 20
3 0 6 -9 5 -20z m-202 -10 c8 -13 -5 -13 -25 0 -13 8 -13 10 2 10 9 0 20 -4
23 -10z m1690 0 c4 -6 1 -9 -7 -8 -7 2 -12 -5 -12 -15 2 -14 -1 -15 -12 -6
-10 8 -11 14 -1 24 15 17 24 18 32 5z m-34 -47 c13 -16 12 -17 -3 -4 -10 7
-18 15 -18 17 0 8 8 3 21 -13z m-1616 -42 c3 -5 2 -12 -3 -15 -5 -3 -9 1 -9 9
0 17 3 19 12 6z m1603 -16 c-3 -3 -9 2 -12 12 -6 14 -5 15 5 6 7 -7 10 -15 7
-18z m-1077 -32 c6 -6 18 -9 27 -6 9 4 13 2 9 -4 -9 -14 2 -43 15 -43 5 0 6 6
2 13 -6 9 -4 9 8 -1 20 -16 18 -84 -3 -90 -11 -3 -11 -1 1 7 14 10 13 12 -9
15 -17 2 -26 17 -27 44 -1 15 -2 30 -3 33 -1 3 -13 11 -28 18 -27 11 -27 11
-8 -5 11 -8 19 -20 17 -25 -1 -6 3 -7 9 -3 8 5 9 3 4 -6 -6 -10 -11 -10 -20 3
-7 10 -17 17 -24 17 -6 0 -10 3 -10 8 3 20 -2 32 -13 26 -6 -4 -8 -3 -5 3 8
13 44 10 58 -4z m483 -42 c3 -5 0 -14 -8 -20 -10 -9 -15 -8 -20 4 -3 9 -2 13
4 10 6 -3 10 -1 10 4 0 13 7 14 14 2z m-204 -441 c0 -5 -5 -10 -11 -10 -5 0
-7 5 -4 10 3 6 8 10 11 10 2 0 4 -4 4 -10z m29 -82 c-6 -12 -6 -25 1 -38 13
-23 22 -27 14 -5 -4 8 -2 15 4 15 13 0 22 -35 12 -49 -5 -8 -13 -3 -24 14 -13
20 -20 24 -30 15 -11 -8 -13 -5 -11 18 3 36 27 75 36 60 4 -7 3 -20 -2 -30z
m-324 2 c-3 -5 -12 -10 -18 -10 -7 0 -6 4 3 10 19 12 23 12 15 0z m891 -18
c-3 -2 -1 -13 4 -23 11 -19 -4 -37 -15 -19 -4 6 -11 8 -16 4 -5 -3 -7 -9 -4
-14 3 -5 -2 -13 -11 -18 -15 -8 -15 -10 1 -16 10 -3 24 -1 33 6 13 11 14 10
10 -2 -3 -9 -17 -15 -36 -15 -17 -1 -29 1 -27 4 3 2 -1 11 -8 19 -9 12 -9 14
0 9 16 -10 36 26 22 40 -7 7 -4 15 10 25 12 8 18 19 13 24 -4 4 1 2 11 -5 9
-8 15 -16 13 -19z m-1178 -43 c-2 -6 -7 -10 -12 -9 -5 1 -12 -4 -17 -12 -6 -9
-8 -7 -7 8 1 12 10 21 21 21 10 1 17 -3 15 -8z m484 -11 c-9 -9 -15 -9 -24 1
-9 10 -9 12 -1 7 6 -3 15 -1 18 5 4 5 10 8 13 4 3 -3 0 -11 -6 -17z m78 12 c0
-5 -5 -10 -11 -10 -5 0 -7 5 -4 10 3 6 8 10 11 10 2 0 4 -4 4 -10z m-382 -32
c-2 -12 3 -23 12 -25 13 -4 13 -3 0 6 -19 13 0 14 20 1 13 -9 13 -11 1 -19 -9
-6 -22 -4 -38 6 -13 8 -23 12 -23 9 0 -4 -13 0 -30 9 -16 9 -30 18 -30 21 0 3
5 2 10 -1 6 -3 10 -2 10 4 0 5 9 8 20 6 11 -2 22 1 25 6 10 15 26 -1 23 -23z
m988 3 c-4 -6 -12 -11 -18 -11 -7 0 -7 4 1 13 6 8 9 16 7 19 -1 3 1 2 7 -2 5
-5 6 -13 3 -19z m94 3 c-25 -11 -36 -11 -46 -3 -11 9 -14 8 -14 0 0 -7 -4 -9
-10 -6 -5 3 -10 10 -10 16 0 13 38 11 42 -3 3 -8 11 -7 28 5 13 9 28 13 33 10
5 -3 -5 -12 -23 -19z m-940 -8 c0 -3 -4 -8 -10 -11 -5 -3 -10 -1 -10 4 0 6 5
11 10 11 6 0 10 -2 10 -4z"/>
<path d="M2469 1829 c-6 -29 -3 -52 8 -56 12 -5 12 -7 1 -14 -7 -5 -8 -9 -2
-9 6 0 19 10 30 23 34 39 36 46 13 42 -13 -3 -28 0 -36 6 -7 7 -13 10 -14 8z
m43 -24 c7 4 5 0 -4 -8 -10 -8 -15 -17 -11 -21 4 -4 -1 -4 -12 0 -12 5 -14 9
-7 12 10 3 10 7 0 20 -12 15 -11 16 4 4 9 -8 23 -11 30 -7z"/>
<path d="M856 1662 c-3 -5 1 -17 8 -27 12 -17 13 -17 11 3 -2 26 -11 37 -19
24z"/>
<path d="M1305 1341 c3 -20 31 -22 31 -2 0 9 -8 17 -17 17 -9 0 -16 -7 -14
-15z"/>
<path d="M1560 860 c-6 -11 -8 -20 -6 -20 3 0 10 9 16 20 6 11 8 20 6 20 -3 0
-10 -9 -16 -20z"/>
<path d="M2115 837 c-12 -10 -14 -16 -7 -21 7 -4 12 -2 12 5 0 7 7 4 16 -7 15
-18 15 -18 5 2 -6 12 -7 24 -4 28 11 11 -3 6 -22 -7z"/>
<path d="M1127 776 c-4 -10 -13 -13 -24 -10 -15 5 -16 4 -3 -5 11 -7 19 -6 29
4 8 8 12 17 9 20 -3 3 -8 -1 -11 -9z"/>
<path d="M1566 2238 c3 -5 10 -6 15 -3 13 9 11 12 -6 12 -8 0 -12 -4 -9 -9z"/>
<path d="M1390 2120 c0 -5 5 -10 11 -10 5 0 7 5 4 10 -3 6 -8 10 -11 10 -2 0
-4 -4 -4 -10z"/>
<path d="M1313 2095 c0 -8 4 -12 9 -9 5 3 6 10 3 15 -9 13 -12 11 -12 -6z"/>
<path d="M2579 2093 c-13 -17 -13 -17 6 -3 11 8 22 16 24 17 2 2 0 3 -6 3 -6
0 -17 -8 -24 -17z"/>
<path d="M446 2062 c-3 -5 1 -9 9 -9 8 0 12 4 9 9 -3 4 -7 8 -9 8 -2 0 -6 -4
-9 -8z"/>
<path d="M1396 2053 c-6 -14 -5 -15 5 -6 7 7 10 15 7 18 -3 3 -9 -2 -12 -12z"/>
<path d="M1606 2023 c-6 -14 -5 -15 5 -6 7 7 10 15 7 18 -3 3 -9 -2 -12 -12z"/>
<path d="M2346 2021 c-14 -15 -15 -21 -4 -27 7 -4 10 -3 5 1 -4 5 0 17 10 27
9 10 14 18 11 18 -3 0 -13 -9 -22 -19z"/>
<path d="M1407 2019 c7 -7 15 -10 18 -7 3 3 -2 9 -12 12 -14 6 -15 5 -6 -5z"/>
<path d="M2556 2007 c3 -10 9 -15 12 -12 3 3 0 11 -7 18 -10 9 -11 8 -5 -6z"/>
<path d="M2540 1990 c6 -11 15 -20 20 -20 6 0 2 9 -7 20 -10 11 -19 20 -21 20
-1 0 2 -9 8 -20z"/>
<path d="M2592 1991 c-11 -7 -11 -9 0 -14 9 -3 15 1 15 9 0 8 -1 14 -1 14 -1
0 -7 -4 -14 -9z"/>
<path d="M511 1974 c0 -11 3 -14 6 -6 3 7 2 16 -1 19 -3 4 -6 -2 -5 -13z"/>
<path d="M467 1966 c-4 -10 -1 -13 8 -9 8 3 12 9 9 14 -7 12 -11 11 -17 -5z"/>
<path d="M530 1960 c0 -5 5 -10 11 -10 5 0 7 5 4 10 -3 6 -8 10 -11 10 -2 0
-4 -4 -4 -10z"/>
<path d="M740 1960 c-9 -6 -10 -10 -3 -10 6 0 15 5 18 10 8 12 4 12 -15 0z"/>
<path d="M1396 1962 c-2 -4 -1 -14 4 -22 7 -11 9 -9 7 8 -1 24 -3 26 -11 14z"/>
<path d="M490 1940 c0 -5 5 -10 10 -10 6 0 10 5 10 10 0 6 -4 10 -10 10 -5 0
-10 -4 -10 -10z"/>
<path d="M1616 1938 c3 -5 10 -6 15 -3 13 9 11 12 -6 12 -8 0 -12 -4 -9 -9z"/>
<path d="M736 1907 c3 -10 9 -15 12 -12 3 3 0 11 -7 18 -10 9 -11 8 -5 -6z"/>
<path d="M759 1888 c-8 -30 -6 -47 8 -52 12 -5 13 -3 6 6 -6 7 -9 21 -8 31 3
13 -2 26 -6 15z"/>
<path d="M1650 1836 c0 -2 8 -10 18 -17 15 -13 16 -12 3 4 -13 16 -21 21 -21
13z"/>
<path d="M866 1822 c-3 -5 1 -9 9 -9 8 0 12 4 9 9 -3 4 -7 8 -9 8 -2 0 -6 -4
-9 -8z"/>
<path d="M1346 1822 c-3 -5 1 -9 9 -9 8 0 12 4 9 9 -3 4 -7 8 -9 8 -2 0 -6 -4
-9 -8z"/>
<path d="M2679 1823 c0 -5 -2 -16 -4 -25 -2 -10 0 -20 4 -22 3 -2 7 9 7 25 1
16 0 29 -2 29 -2 0 -4 -3 -5 -7z"/>
<path d="M426 1785 c-9 -26 -7 -32 5 -12 6 10 9 21 6 23 -2 3 -7 -2 -11 -11z"/>
<path d="M579 1776 c14 -15 21 -26 17 -26 -5 0 -4 -6 2 -12 6 -7 11 -16 11
-20 1 -5 3 -8 6 -8 3 0 8 0 11 0 4 0 1 7 -6 15 -7 8 -9 15 -4 15 4 0 3 5 -3
11 -6 6 -9 19 -6 28 4 14 3 14 -6 1 -6 -8 -11 -10 -11 -4 0 7 -8 15 -17 18
-13 5 -11 0 6 -18z"/>
<path d="M830 1760 c0 -5 5 -10 10 -10 6 0 10 5 10 10 0 6 -4 10 -10 10 -5 0
-10 -4 -10 -10z"/>
<path d="M2730 1765 c0 -5 5 -17 10 -25 5 -8 10 -10 10 -5 0 6 -5 17 -10 25
-5 8 -10 11 -10 5z"/>
<path d="M930 1746 c0 -8 4 -17 9 -20 5 -4 7 3 4 14 -6 23 -13 26 -13 6z"/>
<path d="M2076 1747 c3 -10 9 -15 12 -12 3 3 0 11 -7 18 -10 9 -11 8 -5 -6z"/>
<path d="M2228 1753 c6 -2 9 -10 6 -15 -4 -7 -2 -8 5 -4 13 9 5 26 -12 25 -9
0 -8 -2 1 -6z"/>
<path d="M420 1735 c-11 -13 -10 -14 4 -9 9 3 16 10 16 15 0 13 -6 11 -20 -6z"/>
<path d="M2635 1740 c3 -5 8 -10 11 -10 2 0 4 5 4 10 0 6 -5 10 -11 10 -5 0
-7 -4 -4 -10z"/>
<path d="M2653 1716 c-3 -6 -3 -8 2 -4 4 4 13 3 20 -2 8 -7 12 -5 12 3 0 16
-25 18 -34 3z"/>
<path d="M401 1696 c-9 -11 -9 -16 1 -22 7 -4 10 -4 6 1 -4 4 -3 14 3 22 6 7
9 13 6 13 -2 0 -10 -6 -16 -14z"/>
<path d="M1364 1699 c-3 -6 1 -17 10 -25 9 -8 11 -9 6 -2 -14 16 -13 31 2 22
7 -4 8 -3 4 4 -9 15 -13 15 -22 1z"/>
<path d="M2616 1695 c-11 -8 -15 -15 -8 -15 6 0 9 -9 7 -20 -3 -13 4 -24 18
-31 20 -9 21 -9 4 4 -12 10 -15 17 -7 22 8 5 8 11 -1 21 -11 13 -6 18 14 15 5
-1 6 3 2 9 -8 12 -6 13 -29 -5z"/>
<path d="M426 1678 c3 -5 10 -6 15 -3 13 9 11 12 -6 12 -8 0 -12 -4 -9 -9z"/>
<path d="M1667 1677 c3 -5 -1 -13 -8 -18 -10 -6 -10 -9 -2 -9 7 0 17 8 22 18
7 14 6 19 -4 19 -8 0 -11 -5 -8 -10z"/>
<path d="M2030 1685 c0 -7 30 -13 34 -7 3 4 -4 9 -15 9 -10 1 -19 0 -19 -2z"/>
<path d="M1249 1663 c-13 -16 -12 -17 4 -4 9 7 17 15 17 17 0 8 -8 3 -21 -13z"/>
<path d="M2751 1667 c-8 -10 -7 -14 2 -14 8 0 14 6 14 14 0 7 -1 13 -2 13 -2
0 -8 -6 -14 -13z"/>
<path d="M2079 1668 c-5 -18 -6 -38 -1 -34 7 8 12 36 6 36 -2 0 -4 -1 -5 -2z"/>
<path d="M2585 1660 c-3 -5 -1 -10 4 -10 6 0 11 5 11 10 0 6 -2 10 -4 10 -3 0
-8 -4 -11 -10z"/>
<path d="M2580 1636 c0 -2 7 -9 15 -16 9 -7 15 -8 15 -2 0 5 -7 12 -15 16 -8
3 -15 4 -15 2z"/>
<path d="M501 1625 c2 -5 -3 -21 -11 -35 -17 -31 -21 -48 -10 -55 4 -2 7 5 6
18 -1 16 4 21 19 20 11 -1 14 0 8 3 -7 3 -13 10 -13 15 0 6 4 8 9 5 11 -7 8
20 -3 31 -4 4 -6 4 -5 -2z"/>
<path d="M1665 1620 c-3 -6 1 -7 9 -4 18 7 21 14 7 14 -6 0 -13 -4 -16 -10z"/>
<path d="M1696 1613 c-6 -14 -5 -15 5 -6 7 7 10 15 7 18 -3 3 -9 -2 -12 -12z"/>
<path d="M436 1601 c-3 -5 1 -14 8 -20 10 -9 16 -9 21 -1 4 6 4 14 1 17 -3 4
-6 1 -6 -6 0 -7 -5 -9 -10 -6 -6 4 -8 11 -5 16 4 5 4 9 1 9 -3 0 -7 -4 -10 -9z"/>
<path d="M1016 1598 c3 -4 11 -5 19 -1 21 7 19 12 -4 10 -11 0 -18 -5 -15 -9z"/>
<path d="M2615 1599 c-3 -4 2 -6 10 -5 21 3 28 13 10 13 -9 0 -18 -4 -20 -8z"/>
<path d="M1195 1591 c-3 -5 -2 -12 3 -15 5 -3 9 1 9 9 0 17 -3 19 -12 6z"/>
<path d="M1290 1580 c0 -5 5 -10 11 -10 5 0 7 5 4 10 -3 6 -8 10 -11 10 -2 0
-4 -4 -4 -10z"/>
<path d="M1350 1580 c0 -5 5 -10 11 -10 5 0 7 5 4 10 -3 6 -8 10 -11 10 -2 0
-4 -4 -4 -10z"/>
<path d="M1690 1580 c0 -5 9 -8 20 -7 21 1 18 10 -5 13 -8 1 -15 -2 -15 -6z"/>
<path d="M2588 1583 c6 -2 12 -9 12 -14 0 -6 -4 -8 -9 -4 -6 3 -15 -3 -21 -14
-7 -14 -7 -22 0 -26 6 -4 10 -3 9 2 -4 22 3 31 21 28 17 -3 19 -1 10 16 -6 10
-16 19 -23 18 -9 0 -9 -2 1 -6z"/>
<path d="M1035 1559 c-4 -6 -5 -12 -2 -15 2 -3 7 2 10 11 7 17 1 20 -8 4z"/>
<path d="M1335 1560 c3 -5 -1 -10 -9 -10 -9 0 -16 -5 -16 -10 0 -7 7 -7 20 0
17 9 20 30 4 30 -3 0 -2 -4 1 -10z"/>
<path d="M1667 1559 c7 -7 15 -10 18 -7 3 3 -2 9 -12 12 -14 6 -15 5 -6 -5z"/>
<path d="M512 1551 c-11 -7 -10 -9 3 -14 9 -4 14 -3 10 2 -3 5 1 12 7 14 7 3
9 6 3 6 -5 0 -16 -3 -23 -8z"/>
<path d="M2020 1555 c0 -5 5 -17 10 -25 5 -8 10 -10 10 -5 0 6 -5 17 -10 25
-5 8 -10 11 -10 5z"/>
<path d="M1733 1533 c0 -9 4 -10 14 -2 7 6 13 12 13 14 0 1 -6 2 -13 2 -8 0
-14 -6 -14 -14z"/>
<path d="M1988 1543 c7 -3 16 -2 19 1 4 3 -2 6 -13 5 -11 0 -14 -3 -6 -6z"/>
<path d="M1234 1516 c1 -14 4 -28 7 -31 3 -3 5 6 5 19 -1 14 -4 28 -7 31 -3 3
-5 -6 -5 -19z"/>
<path d="M499 1528 c-6 -20 -6 -37 1 -33 4 3 11 -2 14 -10 3 -8 9 -14 13 -13
9 3 13 -5 13 -24 0 -6 -10 -3 -22 8 l-23 19 20 -23 c17 -21 21 -21 31 -8 6 9
13 14 16 11 2 -3 5 2 5 10 0 8 -4 12 -8 9 -4 -2 -10 0 -14 6 -4 6 -11 8 -16 5
-5 -4 -9 1 -9 9 0 9 -5 16 -11 16 -5 0 -7 5 -4 10 3 6 4 10 1 10 -3 0 -6 -1
-7 -2z"/>
<path d="M534 1518 c-4 -7 -3 -8 4 -4 7 4 12 1 12 -8 0 -9 5 -16 10 -16 7 0 7
6 0 20 -12 23 -16 24 -26 8z"/>
<path d="M1045 1520 c3 -5 8 -10 11 -10 2 0 4 5 4 10 0 6 -5 10 -11 10 -5 0
-7 -4 -4 -10z"/>
<path d="M1760 1515 c-7 -8 -17 -12 -24 -8 -6 3 -7 2 -3 -2 4 -5 15 -10 23
-11 9 -1 13 0 10 3 -3 4 -1 12 5 20 6 7 9 13 6 13 -2 0 -10 -7 -17 -15z"/>
<path d="M2006 1515 c-3 -9 -11 -13 -17 -9 -8 5 -9 3 -4 -5 6 -10 11 -9 23 3
9 8 13 18 10 21 -3 3 -8 -1 -12 -10z"/>
<path d="M1829 1503 c-13 -16 -12 -17 4 -4 16 13 21 21 13 21 -2 0 -10 -8 -17
-17z"/>
<path d="M2616 1507 c3 -10 9 -15 12 -12 3 3 0 11 -7 18 -10 9 -11 8 -5 -6z"/>
<path d="M474 1460 c0 -13 4 -16 10 -10 7 7 7 13 0 20 -6 6 -10 3 -10 -10z"/>
<path d="M1776 1466 c5 -13 29 -16 36 -5 2 2 1 3 -1 2 -2 -1 -12 2 -22 8 -14
7 -17 6 -13 -5z"/>
<path d="M1265 1456 c18 -13 55 -6 55 10 0 2 -9 0 -19 -6 -13 -7 -22 -7 -26 0
-3 5 -11 10 -18 10 -6 0 -2 -6 8 -14z"/>
<path d="M2493 1453 c1 -23 17 -33 17 -12 0 6 7 8 16 5 9 -3 12 -2 9 5 -4 6
-13 8 -20 5 -8 -3 -16 0 -18 7 -3 7 -4 2 -4 -10z"/>
<path d="M2573 1455 c0 -8 4 -12 9 -9 5 3 6 10 3 15 -9 13 -12 11 -12 -6z"/>
<path d="M2626 1458 c3 -5 10 -6 15 -3 13 9 11 12 -6 12 -8 0 -12 -4 -9 -9z"/>
<path d="M580 1440 c-8 -5 -12 -12 -9 -15 4 -3 12 1 19 10 14 17 11 19 -10 5z"/>
<path d="M1756 1434 c-8 -20 -8 -24 2 -24 4 0 8 9 9 20 2 24 -3 26 -11 4z"/>
<path d="M2550 1441 c0 -6 4 -13 10 -16 6 -3 7 1 4 9 -7 18 -14 21 -14 7z"/>
<path d="M540 1415 c-11 -13 -10 -14 4 -9 9 3 16 10 16 15 0 13 -6 11 -20 -6z"/>
<path d="M2520 1426 c0 -2 7 -7 16 -10 8 -3 12 -2 9 4 -6 10 -25 14 -25 6z"/>
<path d="M583 1413 c-7 -2 -13 -9 -13 -15 0 -7 5 -7 13 1 8 6 18 7 22 3 5 -4
5 -1 1 6 -4 6 -8 12 -9 11 -1 0 -8 -3 -14 -6z"/>
<path d="M560 1372 c9 -19 14 -21 26 -11 8 6 14 17 14 23 0 6 -5 3 -11 -7 -10
-18 -11 -18 -25 0 -14 17 -14 16 -4 -5z"/>
<path d="M517 1350 c7 -8 23 -15 35 -17 12 -2 19 -1 16 3 -3 3 -12 6 -20 8 -7
1 -20 5 -28 10 -12 7 -13 6 -3 -4z"/>
<path d="M2517 1349 c7 -7 15 -10 18 -7 3 3 -2 9 -12 12 -14 6 -15 5 -6 -5z"/>
<path d="M1731 1331 c-8 -5 -9 -11 -3 -15 5 -3 12 1 16 9 6 17 6 18 -13 6z"/>
<path d="M587 1315 c5 -11 9 -34 8 -52 -1 -18 1 -31 5 -28 11 7 4 75 -10 88
-10 10 -11 8 -3 -8z"/>
<path d="M615 1320 c-3 -5 -2 -10 4 -10 5 0 13 5 16 10 3 6 2 10 -4 10 -5 0
-13 -4 -16 -10z"/>
<path d="M629 1293 c-10 -11 -10 -14 -1 -9 6 4 12 3 12 -3 0 -5 -5 -12 -10
-14 -6 -3 -5 -4 2 -3 7 1 14 12 14 24 2 26 0 27 -17 5z"/>
<path d="M2490 1302 c0 -4 10 -9 22 -9 18 -2 20 0 8 7 -18 12 -30 13 -30 2z"/>
<path d="M2470 1291 c0 -6 4 -13 10 -16 6 -3 7 1 4 9 -7 18 -14 21 -14 7z"/>
<path d="M656 1261 c-3 -5 1 -11 9 -14 9 -4 12 -1 8 9 -6 16 -10 17 -17 5z"/>
<path d="M635 1231 c-4 -7 0 -8 11 -4 12 4 15 3 10 -5 -4 -7 -2 -12 4 -12 14
0 8 22 -7 27 -6 2 -14 -1 -18 -6z"/>
<path d="M624 1189 c0 -13 3 -15 13 -7 7 6 13 12 13 13 0 2 -6 5 -13 8 -7 3
-13 -3 -13 -14z"/>
<path d="M676 1194 c-18 -17 -20 -24 -8 -24 4 0 13 9 20 20 15 24 9 26 -12 4z"/>
<path d="M2386 1188 l-27 -23 27 -2 c19 -1 23 2 13 7 -7 5 -10 12 -6 16 3 4
13 1 21 -5 12 -10 14 -9 12 3 -4 27 -13 28 -40 4z"/>
<path d="M2451 1184 c0 -11 3 -14 6 -6 3 7 2 16 -1 19 -3 4 -6 -2 -5 -13z"/>
<path d="M2411 1151 c-8 -5 -21 -7 -30 -4 -13 4 -13 3 -2 -5 8 -6 21 -8 29 -4
11 4 13 1 7 -9 -5 -8 -4 -11 0 -6 7 6 17 37 12 37 -1 0 -8 -4 -16 -9z"/>
<path d="M610 1119 c0 -5 5 -7 10 -4 6 3 10 8 10 11 0 2 -4 4 -10 4 -5 0 -10
-5 -10 -11z"/>
<path d="M2370 1123 c5 -2 8 -9 5 -13 -3 -5 5 -14 17 -20 22 -11 22 -11 3 5
-11 9 -19 19 -17 23 2 3 -1 7 -7 9 -7 1 -8 0 -1 -4z"/>
<path d="M2450 1119 c0 -5 5 -7 10 -4 6 3 10 8 10 11 0 2 -4 4 -10 4 -5 0 -10
-5 -10 -11z"/>
<path d="M2342 1093 c3 -19 28 -31 28 -13 0 6 -5 8 -12 4 -8 -5 -9 -2 -5 9 3
10 2 17 -4 17 -6 0 -9 -8 -7 -17z"/>
<path d="M2453 1083 c4 -3 1 -13 -6 -22 -11 -14 -10 -14 5 -2 16 12 16 31 1
31 -4 0 -3 -3 0 -7z"/>
<path d="M667 1063 c-3 -5 6 -9 20 -10 19 -1 22 1 12 8 -17 11 -26 11 -32 2z"/>
<path d="M2376 1061 c-4 -5 3 -7 14 -4 23 6 26 13 6 13 -8 0 -17 -4 -20 -9z"/>
<path d="M2386 1042 c-3 -5 1 -9 9 -9 8 0 12 4 9 9 -3 4 -7 8 -9 8 -2 0 -6 -4
-9 -8z"/>
<path d="M715 1019 c1 -10 5 -22 10 -26 4 -5 5 -2 1 5 -4 6 -2 12 3 12 15 0
14 17 -2 23 -9 3 -13 -2 -12 -14z"/>
<path d="M750 1020 c0 -5 5 -10 11 -10 5 0 7 5 4 10 -3 6 -8 10 -11 10 -2 0
-4 -4 -4 -10z"/>
<path d="M2320 1020 c-8 -5 -10 -10 -5 -10 6 0 17 5 25 10 8 5 11 10 5 10 -5
0 -17 -5 -25 -10z"/>
<path d="M2352 1014 c-7 -8 -8 -14 -3 -14 10 0 25 19 20 25 -2 1 -10 -3 -17
-11z"/>
<path d="M738 988 c-8 -20 2 -38 20 -38 16 1 16 1 0 11 -10 5 -15 16 -12 24 4
8 4 15 1 15 -3 0 -7 -6 -9 -12z"/>
<path d="M672 985 c3 -3 16 -8 28 -10 12 -2 20 -1 16 2 -4 4 -16 8 -28 10 -12
2 -19 1 -16 -2z"/>
<path d="M2347 979 c7 -7 15 -10 18 -7 3 3 -2 9 -12 12 -14 6 -15 5 -6 -5z"/>
<path d="M2386 962 c-3 -5 1 -9 9 -9 8 0 12 4 9 9 -3 4 -7 8 -9 8 -2 0 -6 -4
-9 -8z"/>
<path d="M685 940 c-3 -6 1 -7 9 -4 18 7 21 14 7 14 -6 0 -13 -4 -16 -10z"/>
<path d="M740 926 c0 -2 7 -7 16 -10 8 -3 12 -2 9 4 -6 10 -25 14 -25 6z"/>
<path d="M759 898 c-6 -10 -4 -68 2 -68 12 0 19 29 8 36 -6 3 -8 12 -5 20 4
11 0 21 -5 12z"/>
<path d="M2377 855 c-4 -8 -3 -16 1 -19 4 -3 9 4 9 15 2 23 -3 25 -10 4z"/>
<path d="M695 840 c3 -5 8 -10 11 -10 2 0 4 5 4 10 0 6 -5 10 -11 10 -5 0 -7
-4 -4 -10z"/>
<path d="M924 828 l-19 -23 23 19 c21 18 27 26 19 26 -2 0 -12 -10 -23 -22z"/>
<path d="M2310 840 c0 -5 5 -10 10 -10 6 0 10 5 10 10 0 6 -4 10 -10 10 -5 0
-10 -4 -10 -10z"/>
<path d="M1160 821 c0 -6 4 -13 10 -16 6 -3 7 1 4 9 -7 18 -14 21 -14 7z"/>
<path d="M1769 823 c-1 -2 -2 -6 -3 -10 -1 -5 -5 -14 -10 -22 -6 -10 -5 -16 3
-19 7 -2 24 -15 39 -28 l27 -23 -25 -1 c-14 -1 -19 -4 -12 -7 7 -3 20 -2 28 1
14 5 14 9 3 22 -11 14 -10 15 7 12 28 -5 35 -20 16 -35 -15 -13 -15 -13 4 -4
12 6 24 8 27 5 3 -3 10 3 16 14 6 11 8 22 5 24 -3 3 2 8 10 11 11 4 13 0 10
-19 -3 -17 -1 -23 6 -19 6 4 10 12 9 18 -3 24 1 40 8 33 12 -11 12 -40 1 -53
-7 -9 -7 -13 1 -13 6 0 11 5 11 10 0 6 5 9 11 8 19 -5 21 18 4 35 -9 9 -16 20
-16 24 -1 4 -6 7 -11 5 -6 -2 -8 5 -4 14 5 14 4 15 -8 5 -10 -9 -16 -9 -21 -1
-5 8 -10 8 -20 0 -10 -8 -15 -8 -20 0 -5 8 -11 8 -20 0 -9 -7 -16 -6 -24 4
-10 12 -48 19 -52 9z m52 -19 c8 -10 15 -11 24 -4 9 8 15 8 20 0 4 -7 11 -8
18 -1 8 6 19 5 31 -5 19 -13 11 -20 -16 -15 -5 0 -8 -3 -8 -9 0 -5 -5 -10 -11
-10 -5 0 -8 4 -4 9 3 5 0 13 -6 17 -8 5 -9 3 -4 -7 8 -12 6 -12 -8 0 -9 7 -17
9 -17 4 0 -5 11 -15 24 -23 15 -8 22 -18 19 -28 -5 -12 -8 -12 -20 4 -8 10
-24 19 -36 20 -36 0 -70 23 -58 38 6 7 9 15 6 17 -2 3 4 5 15 6 10 1 24 -5 31
-13z m147 -69 c-3 -3 -9 2 -12 12 -6 14 -5 15 5 6 7 -7 10 -15 7 -18z"/>
<path d="M1779 793 c-9 -11 -10 -14 -1 -9 6 4 12 2 12 -3 0 -6 5 -11 11 -11 8
0 8 5 -1 15 -7 8 -8 15 -2 15 5 0 16 -8 23 -18 13 -16 13 -15 3 2 -15 27 -28
30 -45 9z"/>
<path d="M1886 792 c-3 -5 1 -9 9 -9 8 0 12 4 9 9 -3 4 -7 8 -9 8 -2 0 -6 -4
-9 -8z"/>
<path d="M1304 773 c5 -8 4 -18 -3 -26 -6 -8 -8 -17 -4 -20 3 -4 -1 -7 -10 -7
-9 0 -17 -5 -17 -10 0 -7 7 -7 20 0 11 6 18 15 15 20 -3 5 -1 11 4 14 5 4 12
-2 14 -11 4 -15 5 -15 6 -2 0 9 -7 25 -16 36 -10 10 -14 13 -9 6z"/>
<path d="M1632 764 c-7 -14 -8 -23 -3 -19 5 3 12 1 16 -5 3 -5 12 -10 18 -10
7 0 5 5 -5 10 -10 6 -14 18 -11 30 7 28 -2 25 -15 -6z"/>
<path d="M2350 780 c0 -5 5 -10 11 -10 5 0 7 5 4 10 -3 6 -8 10 -11 10 -2 0
-4 -4 -4 -10z"/>
<path d="M833 765 c0 -8 4 -15 9 -15 4 0 8 4 8 9 0 6 -4 12 -8 15 -5 3 -9 -1
-9 -9z"/>
<path d="M1465 769 c-4 -6 -5 -12 -2 -15 2 -3 7 2 10 11 7 17 1 20 -8 4z"/>
<path d="M1535 760 c3 -5 11 -10 16 -10 6 0 7 5 4 10 -3 6 -11 10 -16 10 -6 0
-7 -4 -4 -10z"/>
<path d="M766 745 c-11 -8 -15 -15 -9 -15 6 0 16 7 23 15 16 19 11 19 -14 0z"/>
<path d="M1431 733 c-10 -26 -10 -27 4 -9 8 11 15 23 15 28 0 15 -7 8 -19 -19z"/>
<path d="M1480 755 c0 -5 5 -17 10 -25 5 -8 10 -10 10 -5 0 6 -5 17 -10 25 -5
8 -10 11 -10 5z"/>
<path d="M1750 751 c0 -10 30 -24 37 -17 3 2 -5 9 -16 16 -12 6 -21 7 -21 1z"/>
<path d="M2000 748 c13 -16 13 -31 0 -23 -5 3 -10 1 -10 -4 0 -14 17 -14 26 0
3 6 -1 17 -10 25 -9 8 -11 9 -6 2z"/>
<path d="M803 738 c-11 -19 -13 -39 -1 -32 5 3 7 9 4 12 -3 3 -1 11 5 19 6 7
9 13 6 13 -3 0 -9 -6 -14 -12z"/>
<path d="M1022 734 c-17 -18 -15 -29 3 -14 12 10 16 8 25 -14 5 -14 12 -26 14
-26 7 0 -4 30 -18 51 -9 14 -13 14 -24 3z"/>
<path d="M1516 742 c-3 -4 4 -9 15 -9 23 -2 25 3 4 10 -8 4 -16 3 -19 -1z"/>
<path d="M1731 734 c0 -11 3 -14 6 -6 3 7 2 16 -1 19 -3 4 -6 -2 -5 -13z"/>
<path d="M2230 740 c0 -5 5 -10 11 -10 5 0 7 5 4 10 -3 6 -8 10 -11 10 -2 0
-4 -4 -4 -10z"/>
<path d="M832 727 c-8 -10 -6 -13 7 -13 11 0 17 6 14 13 -3 7 -6 13 -8 13 -1
0 -7 -6 -13 -13z"/>
<path d="M1633 715 c0 -8 4 -12 9 -9 5 3 6 10 3 15 -9 13 -12 11 -12 -6z"/>
<path d="M1695 721 c6 -10 4 -13 -7 -9 -9 4 -15 0 -15 -8 0 -8 3 -12 5 -9 3 3
10 0 17 -5 8 -7 11 -4 10 10 -1 11 -5 23 -10 27 -4 5 -4 2 0 -6z"/>
<path d="M1750 721 c0 -6 4 -13 10 -16 6 -3 7 1 4 9 -7 18 -14 21 -14 7z"/>
<path d="M2154 716 c3 -10 1 -26 -6 -35 -12 -14 -11 -14 4 -3 9 8 23 10 30 6
11 -6 2 6 -31 46 -2 3 -1 -3 3 -14z"/>
<path d="M940 716 c0 -2 7 -6 15 -10 8 -3 15 -1 15 4 0 6 -7 10 -15 10 -8 0
-15 -2 -15 -4z"/>
<path d="M1121 713 c-1 -17 16 -25 25 -12 4 7 3 9 -4 5 -5 -3 -13 0 -15 6 -4
9 -6 10 -6 1z"/>
<path d="M1390 713 c5 -2 8 -9 5 -13 -3 -5 -1 -11 4 -14 5 -4 8 2 7 11 -2 9
-8 18 -15 19 -6 1 -7 0 -1 -3z"/>
<path d="M2076 705 c-3 -8 -1 -15 4 -15 6 0 10 7 10 15 0 8 -2 15 -4 15 -2 0
-6 -7 -10 -15z"/>
<path d="M756 693 c-6 -14 -5 -15 5 -6 7 7 10 15 7 18 -3 3 -9 -2 -12 -12z"/>
<path d="M870 699 c0 -5 5 -7 10 -4 6 3 10 8 10 11 0 2 -4 4 -10 4 -5 0 -10
-5 -10 -11z"/>
<path d="M1176 693 c-6 -14 -5 -15 5 -6 7 7 10 15 7 18 -3 3 -9 -2 -12 -12z"/>
<path d="M1580 706 c0 -2 8 -10 18 -17 15 -13 16 -12 3 4 -13 16 -21 21 -21
13z"/>
<path d="M1890 702 c0 -4 10 -9 22 -9 18 -2 20 0 8 7 -18 12 -30 13 -30 2z"/>
<path d="M1960 706 c0 -2 7 -7 16 -10 8 -3 12 -2 9 4 -6 10 -25 14 -25 6z"/>
<path d="M2020 699 c0 -5 5 -7 10 -4 6 3 10 8 10 11 0 2 -4 4 -10 4 -5 0 -10
-5 -10 -11z"/>
<path d="M2120 699 c0 -5 5 -7 10 -4 6 3 10 8 10 11 0 2 -4 4 -10 4 -5 0 -10
-5 -10 -11z"/>
<path d="M1997 687 c-3 -8 1 -14 8 -14 7 0 11 6 8 14 -3 7 -6 13 -8 13 -2 0
-5 -6 -8 -13z"/>
<path d="M913 673 c0 -9 4 -10 14 -2 7 6 13 12 13 14 0 1 -6 2 -13 2 -8 0 -14
-6 -14 -14z"/>
<path d="M953 673 c0 -9 4 -10 14 -2 7 6 13 12 13 14 0 1 -6 2 -13 2 -8 0 -14
-6 -14 -14z"/>
<path d="M1200 680 c-9 -6 -10 -10 -3 -10 6 0 15 5 18 10 8 12 4 12 -15 0z"/>
<path d="M1266 678 c3 -4 11 -5 19 -1 21 7 19 12 -4 10 -11 0 -18 -5 -15 -9z"/>
<path d="M1426 678 c3 -5 10 -6 15 -3 13 9 11 12 -6 12 -8 0 -12 -4 -9 -9z"/>
<path d="M1535 680 c3 -5 8 -10 11 -10 2 0 4 5 4 10 0 6 -5 10 -11 10 -5 0 -7
-4 -4 -10z"/>
<path d="M1750 678 c0 -4 4 -8 9 -8 6 0 12 4 15 8 3 5 -1 9 -9 9 -8 0 -15 -4
-15 -9z"/>
<path d="M1798 683 c7 -3 16 -2 19 1 4 3 -2 6 -13 5 -11 0 -14 -3 -6 -6z"/>
<path d="M1010 677 c0 -2 6 -10 14 -16 11 -9 16 -9 22 1 4 7 4 10 -1 6 -4 -4
-14 -3 -22 3 -7 6 -13 9 -13 6z"/>
<path d="M1130 676 c0 -2 8 -10 18 -17 15 -13 16 -12 3 4 -13 16 -21 21 -21
13z"/>
<path d="M1373 665 c0 -8 4 -12 9 -9 5 3 6 10 3 15 -9 13 -12 11 -12 -6z"/>
<path d="M1929 663 c-13 -16 -12 -17 4 -4 16 13 21 21 13 21 -2 0 -10 -8 -17
-17z"/>
<path d="M1793 655 c0 -8 4 -12 9 -9 5 3 6 10 3 15 -9 13 -12 11 -12 -6z"/>
<path d="M1969 657 c6 -8 7 -18 3 -22 -4 -5 -1 -5 6 -1 10 6 10 11 1 22 -6 8
-14 14 -16 14 -3 0 0 -6 6 -13z"/>
<path d="M2159 653 c-13 -16 -12 -17 4 -4 16 13 21 21 13 21 -2 0 -10 -8 -17
-17z"/>
<path d="M885 640 c-3 -6 1 -7 9 -4 18 7 21 14 7 14 -6 0 -13 -4 -16 -10z"/>
<path d="M1076 642 c-3 -5 1 -9 9 -9 8 0 12 4 9 9 -3 4 -7 8 -9 8 -2 0 -6 -4
-9 -8z"/>
<path d="M1175 640 c-3 -5 -1 -10 4 -10 6 0 11 5 11 10 0 6 -2 10 -4 10 -3 0
-8 -4 -11 -10z"/>
<path d="M1750 646 c0 -2 7 -7 16 -10 8 -3 12 -2 9 4 -6 10 -25 14 -25 6z"/>
<path d="M1845 640 c-3 -6 1 -7 9 -4 18 7 21 14 7 14 -6 0 -13 -4 -16 -10z"/>
<path d="M1890 646 c0 -2 7 -7 16 -10 8 -3 12 -2 9 4 -6 10 -25 14 -25 6z"/>
</g>
</svg>
